<svg xmlns="http://www.w3.org/2000/svg" width="512" height="512" viewBox="0 0 512 512" data-bbox="83.605 65.627 344.789 380.745" style="overflow: visible;">
    <rect data-uid="o_fcj96439g_6" data-fl-background="" x="0" y="0" width="512" height="512" fill="#000000"></rect>
    <g transform="matrix(0.6450688736611337, 0, 0, 0.6450688736611337, 64.09201254655515, -67.94089368969372)" stroke="rgba(254,201,52,1)" fill="rgba(254,201,52,1)" stroke-width="1" data-uid="o_fcj96439g_7">
        <svg version="1.1" id="Calque_1"
            xmlns="http://www.w3.org/2000/svg" x="0px" y="0px" viewBox="0 0 595.28 841.89" enable-background="new 0 0 595.28 841.89" width="595.28" height="841.89" stroke-width="1" data-uid="o_fcj96439g_8">
            <g stroke-width="1" data-uid="o_fcj96439g_9">
                <g stroke-width="1" data-uid="o_fcj96439g_10">
                    <g stroke-width="1" data-uid="o_fcj96439g_11">
                        <g stroke-width="1" data-uid="o_fcj96439g_12">
                            <path class="st0" d="M499.77 371.71c-19.81 0-36.88 11.71-44.69 28.58h-62.56v41.32h62.56c7.81 16.87 24.88 28.57 44.69 28.57
					c27.2 0 49.23-22.04 49.23-49.24C549 393.75 526.96 371.71 499.77 371.71z M454.44 430c-5 0-9.05-4.05-9.05-9.05
					c0-5 4.05-9.05 9.05-9.05c5 0 9.05 4.05 9.05 9.05C463.49 425.94 459.44 430 454.44 430z M522.76 434.35l-22.65 13.41
					l-22.65-13.41v-26.82l22.65-13.41l22.65 13.41V434.35z" fill="rgba(254,201,52,1)" stroke="rgba(254,201,52,1)" stroke-width="1" data-uid="o_fcj96439g_13"></path>
                        </g>
                        <g stroke-width="1" data-uid="o_fcj96439g_14">
                            <path class="st0" d="M188.14 400.28h-53.27c-7.81-16.87-24.87-28.58-44.69-28.58c-19.42 0-36.16 11.27-44.18 27.61h36.44
					l17.14 23.32l-17.14 23.32H47.82c8.57 14.48 24.31 24.23 42.36 24.23c19.82 0 36.88-11.71 44.69-28.57h53.27V400.28z
					 M139.41 430c-5 0-9.05-4.05-9.05-9.05c0-5 4.05-9.05 9.05-9.05s9.05 4.05 9.05 9.05C148.46 425.94 144.41 430 139.41 430z" fill="rgba(254,201,52,1)" stroke="rgba(254,201,52,1)" stroke-width="1" data-uid="o_fcj96439g_15"></path>
                        </g>
                    </g>
                </g>
                <g stroke-width="1" data-uid="o_fcj96439g_16">
                    <g stroke-width="1" data-uid="o_fcj96439g_17">
                        <path class="st0" d="M433.79 380.24c-2.43 0-4.69-1.53-5.51-3.94c-19.11-56.2-71.85-93.95-131.25-93.95
				c-58.27 0-110.69 36.82-130.43 91.64c-1.05 2.91-4.21 4.54-7.18 3.61c-2.96-0.9-4.71-3.95-3.96-6.96l0.01-0.03
				c21.58-59.97 78.39-99.89 141.55-99.89c64.38 0 121.55 40.93 142.27 101.84c1.03 3.05-0.59 6.35-3.64 7.39
				C435.04 380.14 434.41 380.24 433.79 380.24z" fill="rgba(254,201,52,1)" stroke="rgba(254,201,52,1)" stroke-width="1" data-uid="o_fcj96439g_18"></path>
                    </g>
                    <g stroke-width="1" data-uid="o_fcj96439g_19">
                        <path class="st0" d="M297.04 571.29c-63.16 0-119.98-39.92-141.38-99.32l5.46-2.01l5.65-1.41l0.01 0.03
				c19.58 54.24 71.99 91.07 130.26 91.07c59.39 0 112.14-37.76 131.25-93.95c1.04-3.04 4.32-4.68 7.38-3.64
				c3.04 1.04 4.67 4.34 3.64 7.39C418.59 530.36 361.42 571.29 297.04 571.29z" fill="rgba(254,201,52,1)" stroke="rgba(254,201,52,1)" stroke-width="1" data-uid="o_fcj96439g_20"></path>
                    </g>
                </g>
                <g stroke-width="1" data-uid="o_fcj96439g_21">
                    <g stroke-width="1" data-uid="o_fcj96439g_22">
                        <path class="st1" d="M499.5 342.16c-2.01 0-3.97-1.04-5.04-2.91l-23.88-41.35l-30.55 17.64c-2.5 1.45-5.68 0.84-7.48-1.43
				c-7.93-10.03-16.97-19.2-26.88-27.24c-2.22-1.81-2.8-4.95-1.37-7.43l17.81-30.86L385.8 227.6l-17.62 30.52
				c-1.45 2.51-4.53 3.56-7.2 2.49c-11.9-4.75-24.31-8.17-36.89-10.15c-2.83-0.45-4.92-2.88-4.92-5.75v-35.59h-41.94v35.27
				c0 2.89-2.13 5.35-4.99 5.76c-12.65 1.81-25.1 5.06-37.02 9.64c-2.68 0.99-5.7-0.05-7.13-2.53l-17.8-30.83l-36.31 20.97
				l17.63 30.55c1.45 2.5 0.84 5.68-1.43 7.47c-10.05 7.94-19.21 16.98-27.23 26.88c-1.8 2.22-4.94 2.81-7.43 1.37l-30.86-17.82
				l-23.88 41.35c-1.61 2.78-5.17 3.76-7.95 2.13c-2.79-1.6-3.74-5.17-2.13-7.95L117.5 285c0.77-1.34 2.04-2.32 3.53-2.71
				c1.49-0.38 3.07-0.19 4.42 0.59l31.66 18.28c6.68-7.8 14.04-15.07 21.96-21.68L161 248.18c-1.61-2.78-0.65-6.35 2.13-7.95
				l46.39-26.79c1.33-0.78 2.93-0.97 4.42-0.59c1.49 0.4 2.76 1.37 3.53 2.71l18.26 31.63c9.71-3.43 19.72-6.03 29.87-7.78v-36.12
				c0-3.21 2.6-5.82 5.82-5.82H325c3.21 0 5.82 2.6 5.82 5.82v36.51c10.11 1.87 20.09 4.61 29.77 8.19l18.05-31.26
				c0.77-1.34 2.04-2.32 3.53-2.71c1.5-0.37 3.08-0.2 4.42 0.59l46.4 26.79c2.78 1.6 3.74 5.17 2.13 7.95l-18.27 31.66
				c7.81 6.69 15.07 14.06 21.67 21.96l31.29-18.06c2.78-1.62 6.34-0.65 7.95 2.13l26.79 46.39c1.61 2.78 0.66 6.34-2.13 7.95
				C501.49 341.91 500.49 342.16 499.5 342.16z" fill="rgba(254,201,52,1)" stroke="rgba(254,201,52,1)" stroke-width="1" data-uid="o_fcj96439g_23"></path>
                    </g>
                    <g stroke-width="1" data-uid="o_fcj96439g_24">
                        <path class="st1" d="M325 644.51h-53.58c-3.21 0-5.82-2.6-5.82-5.82v-36.12c-10.15-1.75-20.16-4.35-29.87-7.78l-18.26 31.63
				c-0.77 1.34-2.04 2.32-3.53 2.71c-1.49 0.38-3.08 0.19-4.42-0.59l-46.39-26.79c-2.78-1.6-3.74-5.17-2.13-7.95l18.07-31.29
				c-7.91-6.61-15.27-13.88-21.96-21.68l-31.66 18.28c-1.34 0.78-2.93 0.97-4.42 0.59c-1.49-0.4-2.76-1.37-3.53-2.71l-26.79-46.39
				c-1.61-2.78-0.66-6.35 2.13-7.95c2.78-1.63 6.34-0.65 7.95 2.13l23.88 41.35l30.86-17.82c2.49-1.43 5.63-0.86 7.43 1.37
				c8.02 9.9 17.19 18.94 27.23 26.88c2.26 1.79 2.88 4.97 1.43 7.47l-17.63 30.55l36.31 20.97l17.8-30.83
				c1.43-2.49 4.45-3.54 7.13-2.53c11.92 4.58 24.37 7.82 37.02 9.64c2.87 0.41 4.99 2.87 4.99 5.76v35.27h41.94v-35.59
				c0-2.87 2.08-5.3 4.92-5.75c12.58-1.98 25-5.39 36.89-10.15c2.67-1.06 5.75-0.02 7.2 2.49l17.62 30.52l36.32-20.97l-17.81-30.86
				c-1.43-2.48-0.85-5.62 1.37-7.43c9.91-8.04 18.95-17.2 26.88-27.24c1.8-2.27 4.98-2.88 7.48-1.43l30.55 17.64l23.88-41.35
				c1.6-2.78 5.17-3.75 7.95-2.13c2.79 1.6 3.74 5.17 2.13 7.95l-26.79 46.39c-1.61 2.78-5.17 3.75-7.95 2.13l-31.29-18.06
				c-6.6 7.91-13.86 15.27-21.67 21.96l18.27 31.66c1.61 2.78 0.65 6.35-2.13 7.95l-46.4 26.79c-1.33 0.77-2.92 0.97-4.42 0.59
				c-1.49-0.4-2.76-1.37-3.53-2.71L360.59 594c-9.69 3.57-19.66 6.31-29.77 8.19v36.51C330.82 641.91 328.21 644.51 325 644.51z" fill="rgba(254,201,52,1)" stroke="rgba(254,201,52,1)" stroke-width="1" data-uid="o_fcj96439g_25"></path>
                    </g>
                </g>
                <g stroke-width="1" data-uid="o_fcj96439g_26">
                    <g stroke-width="1" data-uid="o_fcj96439g_27">
                        <g stroke-width="1" data-uid="o_fcj96439g_28">
                            <path class="st1" d="M343.82 455.55c0 10.1 8.22 18.32 18.32 18.32c10.1 0 18.32-8.22 18.32-18.32v-88.61
					c0-0.4 0.01-0.91 0.03-1.48c0.09-3.52 0.28-10.85-3.23-14.45c-1.63-1.68-4.09-2.49-7.51-2.49c-5.58 0-9.85 1.55-13.98 3.05
					c-6.7 2.43-15.04 5.47-23.83-3.58c-8.17-8.42-18.36-7.22-24.37-2.55c-10.02 7.79-18.6 8.87-35.33 4.43
					c-9.71-2.58-14.12 1.23-20.78 7c-1.42 1.23-2.86 2.47-4.38 3.67c-8.19 6.5-14.11 3.59-18.87 1.26
					c-2.92-1.43-5.93-2.91-10.7-3.43c-4.68-0.5-9.25 0.98-12.84 4.2c-3.49 3.13-5.66 7.6-5.66 11.66v74.06
					c0 10.1 8.22 18.32 18.32 18.32c10.1 0 18.32-8.22 18.32-18.32v-46.29c0-3.21 2.61-5.82 5.82-5.82c3.21 0 5.82 2.61 5.82 5.82
					v46.29v4.59v2.68c0 10.1 8.22 18.32 18.32 18.32c10.1 0 18.32-8.22 18.32-18.32c0-0.12 0.03-0.22 0.03-0.34v-53.22
					c0-3.21 2.61-5.82 5.82-5.82c3.21 0 5.82 2.61 5.82 5.82v54.23c0.36 9.79 8.41 17.64 18.28 17.64c9.72 0 17.67-7.62 18.26-17.19
					v-54.68c0-3.21 2.61-5.82 5.82-5.82c3.21 0 5.82 2.61 5.82 5.82v53C343.78 455.18 343.82 455.36 343.82 455.55z" fill="rgba(254,201,52,1)" stroke="rgba(254,201,52,1)" stroke-width="1" data-uid="o_fcj96439g_29"></path>
                        </g>
                        <g stroke-width="1" data-uid="o_fcj96439g_30">
                            <path class="st1" d="M391.77 459.7c-2.03 14.56-14.53 25.81-29.64 25.81c-9.89 0-18.68-4.82-24.14-12.23
					c-5.46 7.41-14.24 12.23-24.14 12.23c-6.36 0-12.26-2.01-17.11-5.41v4.24c0 11.91 9.66 21.57 21.57 21.57h62.08
					c11.97 0 21.68-9.71 21.68-21.68V459.7H391.77z" fill="rgba(254,201,52,1)" stroke="rgba(254,201,52,1)" stroke-width="1" data-uid="o_fcj96439g_31"></path>
                        </g>
                    </g>
                    <g stroke-width="1" data-uid="o_fcj96439g_32">
                        <g stroke-width="1" data-uid="o_fcj96439g_33">
                            <path class="st1" fill="rgba(254,201,52,1)" data-type="circle" data-cx="297.45" data-cy="233.88" data-r="6.28" d="M297.45 233.88m-6.28 0a6.28 6.28 0 1 0 12.56 0a6.28 6.28 0 1 0 -12.56 0" stroke="rgba(254,201,52,1)" stroke-width="1" data-uid="o_fcj96439g_34"></path>
                        </g>
                        <g stroke-width="1" data-uid="o_fcj96439g_35">
                            <path class="st1" fill="rgba(254,201,52,1)" data-type="circle" data-cx="389.58" data-cy="263.54" data-r="6.28" d="M389.58 263.54m-6.28 0a6.28 6.28 0 1 0 12.56 0a6.28 6.28 0 1 0 -12.56 0" stroke="rgba(254,201,52,1)" stroke-width="1" data-uid="o_fcj96439g_36"></path>
                        </g>
                        <g stroke-width="1" data-uid="o_fcj96439g_37">
                            <path class="st1" fill="rgba(254,201,52,1)" data-type="circle" data-cx="207.76" data-cy="263.54" data-r="6.28" d="M207.76 263.54m-6.28 0a6.28 6.28 0 1 0 12.56 0a6.28 6.28 0 1 0 -12.56 0" stroke="rgba(254,201,52,1)" stroke-width="1" data-uid="o_fcj96439g_38"></path>
                        </g>
                        <g stroke-width="1" data-uid="o_fcj96439g_39">
                            <path class="st1" fill="rgba(254,201,52,1)" data-type="circle" data-cx="136.1" data-cy="337.58" data-r="6.28" d="M136.1 337.58m-6.28 0a6.28 6.28 0 1 0 12.56 0a6.28 6.28 0 1 0 -12.56 0" stroke="rgba(254,201,52,1)" stroke-width="1" data-uid="o_fcj96439g_40"></path>
                        </g>
                        <g stroke-width="1" data-uid="o_fcj96439g_41">
                            <path class="st1" fill="rgba(254,201,52,1)" data-type="circle" data-cx="455.01" data-cy="337.58" data-r="6.28" d="M455.01 337.58m-6.28 0a6.28 6.28 0 1 0 12.56 0a6.28 6.28 0 1 0 -12.56 0" stroke="rgba(254,201,52,1)" stroke-width="1" data-uid="o_fcj96439g_42"></path>
                        </g>
                    </g>
                    <g stroke-width="1" data-uid="o_fcj96439g_43">
                        <g stroke-width="1" data-uid="o_fcj96439g_44">
                            <path class="st1" fill="rgba(254,201,52,1)" data-type="circle" data-cx="297.45" data-cy="608.12" data-r="6.28" d="M297.45 608.12m-6.28 0a6.28 6.28 0 1 0 12.56 0a6.28 6.28 0 1 0 -12.56 0" stroke="rgba(254,201,52,1)" stroke-width="1" data-uid="o_fcj96439g_45"></path>
                        </g>
                        <g stroke-width="1" data-uid="o_fcj96439g_46">
                            <path class="st1" fill="rgba(254,201,52,1)" data-type="circle" data-cx="389.58" data-cy="578.46" data-r="6.28" d="M389.58 578.46m-6.28 0a6.28 6.28 0 1 0 12.56 0a6.28 6.28 0 1 0 -12.56 0" stroke="rgba(254,201,52,1)" stroke-width="1" data-uid="o_fcj96439g_47"></path>
                        </g>
                        <g stroke-width="1" data-uid="o_fcj96439g_48">
                            <path class="st1" fill="rgba(254,201,52,1)" data-type="circle" data-cx="207.76" data-cy="578.46" data-r="6.28" d="M207.76 578.46m-6.28 0a6.28 6.28 0 1 0 12.56 0a6.28 6.28 0 1 0 -12.56 0" stroke="rgba(254,201,52,1)" stroke-width="1" data-uid="o_fcj96439g_49"></path>
                        </g>
                        <g stroke-width="1" data-uid="o_fcj96439g_50">
                            <path class="st1" fill="rgba(254,201,52,1)" data-type="circle" data-cx="136.1" data-cy="504.42" data-r="6.28" d="M136.1 504.42m-6.28 0a6.28 6.28 0 1 0 12.56 0a6.28 6.28 0 1 0 -12.56 0" stroke="rgba(254,201,52,1)" stroke-width="1" data-uid="o_fcj96439g_51"></path>
                        </g>
                        <g stroke-width="1" data-uid="o_fcj96439g_52">
                            <path class="st1" fill="rgba(254,201,52,1)" data-type="circle" data-cx="455.01" data-cy="504.42" data-r="6.28" d="M455.01 504.42m-6.28 0a6.28 6.28 0 1 0 12.56 0a6.28 6.28 0 1 0 -12.56 0" stroke="rgba(254,201,52,1)" stroke-width="1" data-uid="o_fcj96439g_53"></path>
                        </g>
                    </g>
                </g>
            </g>
        </svg>
    </g>
    <path text="Shell Collections" fill="#fec934" space="preserve" text-anchor="middle" offset="0.5" font-scale="contain" font-size="58" font-family="Teko" transform="matrix(0.8739464613569906, 0, 0, 1.0264625326943129, 255.8750342973423, 442.1899078443946)" font-style="normal" font-weight="400" letter-spacing="4" data-fl-textpath="" data-uid="o_fcj96439g_55" d="M-159.509-5.92L-159.509-5.92L-159.509-14.79Q-159.509-15.83 -159.829-16.15Q-160.149-16.47 -161.199-16.47L-161.199-16.47L-165.489-16.47Q-170.769-16.47 -170.769-21.63L-170.769-21.63L-170.769-31.2Q-170.769-36.31 -165.369-36.31L-165.369-36.31L-159.689-36.31Q-154.289-36.31 -154.289-31.2L-154.289-31.2L-154.289-25.87L-159.569-25.87L-159.569-30.39Q-159.569-31.44 -159.919-31.75Q-160.269-32.07 -161.309-32.07L-161.309-32.07L-163.749-32.07Q-164.789-32.07 -165.139-31.75Q-165.489-31.44 -165.489-30.39L-165.489-30.39L-165.489-22.33Q-165.489-21.29 -165.139-20.97Q-164.789-20.65 -163.749-20.65L-163.749-20.65L-159.509-20.65Q-154.179-20.65 -154.179-15.54L-154.179-15.54L-154.179-5.1Q-154.179 0 -159.629 0L-159.629 0L-165.259 0Q-170.649 0 -170.649-5.1L-170.649-5.1L-170.649-10.44L-165.369-10.44L-165.369-5.92Q-165.369-4.87 -165.019-4.55Q-164.679-4.23 -163.629-4.23L-163.629-4.23L-161.199-4.23Q-160.149-4.23 -159.829-4.55Q-159.509-4.87 -159.509-5.92ZM-136.661-28.3L-136.661-28.3L-134.631-28.3Q-129.351-28.3 -129.351-23.14L-129.351-23.14L-129.351 0L-134.571 0L-134.571-22.39Q-134.571-23.43 -134.921-23.75Q-135.271-24.07 -136.311-24.07L-136.311-24.07L-138.341-24.07Q-139.391-24.07 -139.821-23.61Q-140.261-23.14 -140.261-22.04L-140.261-22.04L-140.261 0L-145.481 0L-145.481-38.8L-140.261-38.8L-140.261-26.04Q-139.501-28.3 -136.661-28.3ZM-115.031-28.3L-115.031-28.3L-109.351-28.3Q-103.891-28.3 -103.891-23.14L-103.891-23.14L-103.891-12.53L-115.321-12.53L-115.321-5.8Q-115.321-4.81 -114.971-4.47Q-114.621-4.12 -113.581-4.12L-113.581-4.12L-110.911-4.12Q-109.871-4.12 -109.521-4.47Q-109.171-4.81 -109.171-5.86L-109.171-5.86L-109.171-8.18L-104.071-8.18L-104.071-5.1Q-104.071 0 -109.461 0L-109.461 0L-115.031 0Q-120.421 0 -120.421-5.1L-120.421-5.1L-120.421-23.14Q-120.421-28.3 -115.031-28.3ZM-115.321-22.5L-115.321-16.36L-109.061-16.36L-109.061-22.5Q-109.061-23.49 -109.381-23.84Q-109.691-24.19 -110.741-24.19L-110.741-24.19L-113.581-24.19Q-114.621-24.19 -114.971-23.84Q-115.321-23.49 -115.321-22.5L-115.321-22.5ZM-90.211-38.8L-90.211 0L-95.431 0L-95.431-38.8L-90.211-38.8ZM-75.887-38.8L-75.887 0L-81.107 0L-81.107-38.8L-75.887-38.8ZM-37.203-31.2L-37.203-24.94L-42.543-24.94L-42.543-30.51Q-42.543-31.55 -42.863-31.87Q-43.173-32.19 -44.223-32.19L-44.223-32.19L-47.183-32.19Q-48.223-32.19 -48.573-31.87Q-48.923-31.55 -48.923-30.51L-48.923-30.51L-48.923-5.74Q-48.923-4.7 -48.573-4.38Q-48.223-4.06 -47.183-4.06L-47.183-4.06L-44.223-4.06Q-43.173-4.06 -42.863-4.38Q-42.543-4.7 -42.543-5.74L-42.543-5.74L-42.543-11.25L-37.203-11.25L-37.203-5.1Q-37.203 0.06 -42.653 0.06L-42.653 0.06L-48.803 0.06Q-54.193 0.06 -54.193-5.1L-54.193-5.1L-54.193-31.2Q-54.193-36.31 -48.803-36.31L-48.803-36.31L-42.653-36.31Q-37.203-36.31 -37.203-31.2L-37.203-31.2ZM-23.457-28.3L-23.457-28.3L-17.257-28.3Q-11.857-28.3 -11.857-23.14L-11.857-23.14L-11.857-5.1Q-11.857 0 -17.257 0L-17.257 0L-23.457 0Q-28.797 0 -28.797-5.1L-28.797-5.1L-28.797-23.14Q-28.797-28.3 -23.457-28.3ZM-17.017-5.86L-17.017-5.86L-17.017-22.45Q-17.017-23.49 -17.367-23.84Q-17.717-24.19 -18.757-24.19L-18.757-24.19L-21.947-24.19Q-22.997-24.19 -23.317-23.84Q-23.637-23.49 -23.637-22.45L-23.637-22.45L-23.637-5.86Q-23.637-4.81 -23.317-4.47Q-22.997-4.12 -21.947-4.12L-21.947-4.12L-18.757-4.12Q-17.717-4.12 -17.367-4.47Q-17.017-4.81 -17.017-5.86ZM 2.173-38.8L 2.173 0L-3.047 0L-3.047-38.8L 2.173-38.8ZM 16.497-38.8L 16.497 0L 11.277 0L 11.277-38.8L 16.497-38.8ZM 30.881-28.3L 30.881-28.3L 36.561-28.3Q 42.021-28.3  42.021-23.14L 42.021-23.14L 42.021-12.53L 30.591-12.53L 30.591-5.8Q 30.591-4.81  30.941-4.47Q 31.291-4.12  32.331-4.12L 32.331-4.12L 35.001-4.12Q 36.041-4.12  36.391-4.47Q 36.741-4.81  36.741-5.86L 36.741-5.86L 36.741-8.18L 41.841-8.18L 41.841-5.1Q 41.841 0  36.451 0L 36.451 0L 30.881 0Q 25.491 0  25.491-5.1L 25.491-5.1L 25.491-23.14Q 25.491-28.3  30.881-28.3ZM 30.591-22.5L 30.591-16.36L 36.851-16.36L 36.851-22.5Q 36.851-23.49  36.531-23.84Q 36.221-24.19  35.171-24.19L 35.171-24.19L 32.331-24.19Q 31.291-24.19  30.941-23.84Q 30.591-23.49  30.591-22.5L 30.591-22.5ZM 66.491-23.14L 66.491-19.37L 61.331-19.37L 61.331-22.39Q 61.331-23.43  60.981-23.75Q 60.631-24.07  59.591-24.07L 59.591-24.07L 57.091-24.07Q 56.051-24.07  55.701-23.75Q 55.351-23.43  55.351-22.39L 55.351-22.39L 55.351-5.92Q 55.351-4.87  55.701-4.55Q 56.051-4.23  57.091-4.23L 57.091-4.23L 59.591-4.23Q 60.631-4.23  60.981-4.55Q 61.331-4.87  61.331-5.92L 61.331-5.92L 61.331-8.93L 66.491-8.93L 66.491-5.1Q 66.491 0  61.041 0L 61.041 0L 55.531 0Q 50.131 0  50.131-5.1L 50.131-5.1L 50.131-23.14Q 50.131-28.3  55.531-28.3L 55.531-28.3L 61.041-28.3Q 66.491-28.3  66.491-23.14L 66.491-23.14ZM 84.409-28.3L 84.409-24.07L 80.529-24.07L 80.529-6.15Q 80.529-5.1  80.839-4.78Q 81.159-4.47  82.209-4.47L 82.209-4.47L 84.409-4.47L 84.409 0L 80.699 0Q 75.249 0  75.249-5.1L 75.249-5.1L 75.249-24.07L 72.579-24.07L 72.579-28.3L 75.249-28.3L 75.249-33.12L 80.529-33.12L 80.529-28.3L 84.409-28.3ZM 96.881-33.7L 91.431-33.7L 91.431-38.86L 96.881-38.86L 96.881-33.7ZM 96.761-28.3L 96.761 0L 91.541 0L 91.541-28.3L 96.761-28.3ZM 110.915-28.3L 110.915-28.3L 117.115-28.3Q 122.515-28.3  122.515-23.14L 122.515-23.14L 122.515-5.1Q 122.515 0  117.115 0L 117.115 0L 110.915 0Q 105.575 0  105.575-5.1L 105.575-5.1L 105.575-23.14Q 105.575-28.3  110.915-28.3ZM 117.355-5.86L 117.355-5.86L 117.355-22.45Q 117.355-23.49  117.005-23.84Q 116.655-24.19  115.615-24.19L 115.615-24.19L 112.425-24.19Q 111.375-24.19  111.055-23.84Q 110.735-23.49  110.735-22.45L 110.735-22.45L 110.735-5.86Q 110.735-4.81  111.055-4.47Q 111.375-4.12  112.425-4.12L 112.425-4.12L 115.615-4.12Q 116.655-4.12  117.005-4.47Q 117.355-4.81  117.355-5.86ZM 140.145-28.3L 140.145-28.3L 142.175-28.3Q 147.455-28.3  147.455-23.14L 147.455-23.14L 147.455 0L 142.235 0L 142.235-22.39Q 142.235-23.43  141.885-23.75Q 141.535-24.07  140.495-24.07L 140.495-24.07L 138.465-24.07Q 137.415-24.07  136.985-23.61Q 136.545-23.14  136.545-22.04L 136.545-22.04L 136.545 0L 131.325 0L 131.325-28.3L 136.545-28.3L 136.545-26.04Q 137.305-28.3  140.145-28.3ZM 165.955-5.68L 165.955-5.68L 165.955-10.38Q 165.955-11.43  165.605-11.74Q 165.255-12.06  164.215-12.06L 164.215-12.06L 161.255-12.06Q 155.855-12.06  155.855-17.17L 155.855-17.17L 155.855-23.14Q 155.855-28.3  161.255-28.3L 161.255-28.3L 165.485-28.3Q 170.935-28.3  170.935-23.14L 170.935-23.14L 170.935-20.42L 165.835-20.42L 165.835-22.62Q 165.835-23.66  165.485-23.98Q 165.135-24.3  164.095-24.3L 164.095-24.3L 162.705-24.3Q 161.655-24.3  161.315-23.98Q 160.965-23.66  160.965-22.62L 160.965-22.62L 160.965-17.75Q 160.965-16.7  161.315-16.38Q 161.655-16.07  162.705-16.07L 162.705-16.07L 165.715-16.07Q 171.055-16.07  171.055-10.9L 171.055-10.9L 171.055-5.1Q 171.055 0  165.665 0L 165.665 0L 161.365 0Q 155.975 0  155.975-5.1L 155.975-5.1L 155.975-7.89L 161.075-7.89L 161.075-5.68Q 161.075-4.64  161.425-4.32Q 161.775-4  162.815-4L 162.815-4L 164.215-4Q 165.255-4  165.605-4.32Q 165.955-4.64  165.955-5.68Z" stroke-width="2" stroke="#fec934" style="" path="M-172.96900000000002 0C-86.48450000000001 0 86.4845 0 172.96900000000002 0" dy="0" side="left"></path>
</svg>