<svg xmlns="http://www.w3.org/2000/svg" width="512" height="512" viewBox="0 0 512 512" style="overflow: visible;"><rect data-uid="o-f708daf5d394415899efa7d50a8218c7" data-fl-background="" x="0" y="0" width="512" height="512" fill="#000000"></rect><g transform="matrix(0.569296122678951, 0, 0, 0.569296122678951, 86.63440567470448, -22.158597266806012)" data-uid="o-8bdc27c60ef6429c9569263d63c9a29e" fill="#fec934"><svg version="1.1" id="Calque_1" xmlns="http://www.w3.org/2000/svg" x="0px" y="0px" viewBox="0 0 595.28 841.89" enable-background="new 0 0 595.28 841.89" width="595.28" height="841.89" data-uid="o-b2d1d25f318e449b95810e724314b9a6"><g data-uid="o-dd632cfcb7704e6a827bab63dc6185b3"><g data-uid="o-bfff5a3222db420b8b60b2fd07099b0c"><g data-uid="o-845ab74ea7874287a2150a39625c5040"><g data-uid="o-cf97a923279245bbb5524061fff6e38b"><path class="st0" d="M499.77 371.71c-19.81 0-36.88 11.71-44.69 28.58h-62.56v41.32h62.56c7.81 16.87 24.88 28.57 44.69 28.57
					c27.2 0 49.23-22.04 49.23-49.24C549 393.75 526.96 371.71 499.77 371.71z M454.44 430c-5 0-9.05-4.05-9.05-9.05
					c0-5 4.05-9.05 9.05-9.05c5 0 9.05 4.05 9.05 9.05C463.49 425.94 459.44 430 454.44 430z M522.76 434.35l-22.65 13.41
					l-22.65-13.41v-26.82l22.65-13.41l22.65 13.41V434.35z" fill="#fec934" data-uid="o-e6730820373c4e41b1c48c02fc27f005"></path></g><g data-uid="o-5c4ea730fb2b4517b4c92c83532a0b09"><path class="st0" d="M188.14 400.28h-53.27c-7.81-16.87-24.87-28.58-44.69-28.58c-19.42 0-36.16 11.27-44.18 27.61h36.44
					l17.14 23.32l-17.14 23.32H47.82c8.57 14.48 24.31 24.23 42.36 24.23c19.82 0 36.88-11.71 44.69-28.57h53.27V400.28z
					 M139.41 430c-5 0-9.05-4.05-9.05-9.05c0-5 4.05-9.05 9.05-9.05s9.05 4.05 9.05 9.05C148.46 425.94 144.41 430 139.41 430z" fill="#fec934" data-uid="o-c927165407db4607afd70ea0c0909081"></path></g></g></g><g data-uid="o-375c1b376710457e93e1dcf7b646f0ea"><g data-uid="o-d2260af39d6f4aa9b4ce9c6fa44e12db"><path class="st0" d="M433.79 380.24c-2.43 0-4.69-1.53-5.51-3.94c-19.11-56.2-71.85-93.95-131.25-93.95
				c-58.27 0-110.69 36.82-130.43 91.64c-1.05 2.91-4.21 4.54-7.18 3.61c-2.96-0.9-4.71-3.95-3.96-6.96l0.01-0.03
				c21.58-59.97 78.39-99.89 141.55-99.89c64.38 0 121.55 40.93 142.27 101.84c1.03 3.05-0.59 6.35-3.64 7.39
				C435.04 380.14 434.41 380.24 433.79 380.24z" fill="#fec934" data-uid="o-28a440407029427fb242123525abcfe9"></path></g><g data-uid="o-6b3a072dd60e4183907245a12ca9fea6"><path class="st0" d="M297.04 571.29c-63.16 0-119.98-39.92-141.38-99.32l5.46-2.01l5.65-1.41l0.01 0.03
				c19.58 54.24 71.99 91.07 130.26 91.07c59.39 0 112.14-37.76 131.25-93.95c1.04-3.04 4.32-4.68 7.38-3.64
				c3.04 1.04 4.67 4.34 3.64 7.39C418.59 530.36 361.42 571.29 297.04 571.29z" fill="#fec934" data-uid="o-08a7ac0a96934d3886ce0d77760d2cf0"></path></g></g><g data-uid="o-03f003b5840d4251824dd7b476aaca5c"><g data-uid="o-cf8674ab4e784d8cab53755925329c5d"><path class="st1" d="M499.5 342.16c-2.01 0-3.97-1.04-5.04-2.91l-23.88-41.35l-30.55 17.64c-2.5 1.45-5.68 0.84-7.48-1.43
				c-7.93-10.03-16.97-19.2-26.88-27.24c-2.22-1.81-2.8-4.95-1.37-7.43l17.81-30.86L385.8 227.6l-17.62 30.52
				c-1.45 2.51-4.53 3.56-7.2 2.49c-11.9-4.75-24.31-8.17-36.89-10.15c-2.83-0.45-4.92-2.88-4.92-5.75v-35.59h-41.94v35.27
				c0 2.89-2.13 5.35-4.99 5.76c-12.65 1.81-25.1 5.06-37.02 9.64c-2.68 0.99-5.7-0.05-7.13-2.53l-17.8-30.83l-36.31 20.97
				l17.63 30.55c1.45 2.5 0.84 5.68-1.43 7.47c-10.05 7.94-19.21 16.98-27.23 26.88c-1.8 2.22-4.94 2.81-7.43 1.37l-30.86-17.82
				l-23.88 41.35c-1.61 2.78-5.17 3.76-7.95 2.13c-2.79-1.6-3.74-5.17-2.13-7.95L117.5 285c0.77-1.34 2.04-2.32 3.53-2.71
				c1.49-0.38 3.07-0.19 4.42 0.59l31.66 18.28c6.68-7.8 14.04-15.07 21.96-21.68L161 248.18c-1.61-2.78-0.65-6.35 2.13-7.95
				l46.39-26.79c1.33-0.78 2.93-0.97 4.42-0.59c1.49 0.4 2.76 1.37 3.53 2.71l18.26 31.63c9.71-3.43 19.72-6.03 29.87-7.78v-36.12
				c0-3.21 2.6-5.82 5.82-5.82H325c3.21 0 5.82 2.6 5.82 5.82v36.51c10.11 1.87 20.09 4.61 29.77 8.19l18.05-31.26
				c0.77-1.34 2.04-2.32 3.53-2.71c1.5-0.37 3.08-0.2 4.42 0.59l46.4 26.79c2.78 1.6 3.74 5.17 2.13 7.95l-18.27 31.66
				c7.81 6.69 15.07 14.06 21.67 21.96l31.29-18.06c2.78-1.62 6.34-0.65 7.95 2.13l26.79 46.39c1.61 2.78 0.66 6.34-2.13 7.95
				C501.49 341.91 500.49 342.16 499.5 342.16z" fill="#fec934" data-uid="o-f052d0bc789243869b8a3e48705722ea"></path></g><g data-uid="o-aa32d6b8542449bea7f9f81359d1c553"><path class="st1" d="M325 644.51h-53.58c-3.21 0-5.82-2.6-5.82-5.82v-36.12c-10.15-1.75-20.16-4.35-29.87-7.78l-18.26 31.63
				c-0.77 1.34-2.04 2.32-3.53 2.71c-1.49 0.38-3.08 0.19-4.42-0.59l-46.39-26.79c-2.78-1.6-3.74-5.17-2.13-7.95l18.07-31.29
				c-7.91-6.61-15.27-13.88-21.96-21.68l-31.66 18.28c-1.34 0.78-2.93 0.97-4.42 0.59c-1.49-0.4-2.76-1.37-3.53-2.71l-26.79-46.39
				c-1.61-2.78-0.66-6.35 2.13-7.95c2.78-1.63 6.34-0.65 7.95 2.13l23.88 41.35l30.86-17.82c2.49-1.43 5.63-0.86 7.43 1.37
				c8.02 9.9 17.19 18.94 27.23 26.88c2.26 1.79 2.88 4.97 1.43 7.47l-17.63 30.55l36.31 20.97l17.8-30.83
				c1.43-2.49 4.45-3.54 7.13-2.53c11.92 4.58 24.37 7.82 37.02 9.64c2.87 0.41 4.99 2.87 4.99 5.76v35.27h41.94v-35.59
				c0-2.87 2.08-5.3 4.92-5.75c12.58-1.98 25-5.39 36.89-10.15c2.67-1.06 5.75-0.02 7.2 2.49l17.62 30.52l36.32-20.97l-17.81-30.86
				c-1.43-2.48-0.85-5.62 1.37-7.43c9.91-8.04 18.95-17.2 26.88-27.24c1.8-2.27 4.98-2.88 7.48-1.43l30.55 17.64l23.88-41.35
				c1.6-2.78 5.17-3.75 7.95-2.13c2.79 1.6 3.74 5.17 2.13 7.95l-26.79 46.39c-1.61 2.78-5.17 3.75-7.95 2.13l-31.29-18.06
				c-6.6 7.91-13.86 15.27-21.67 21.96l18.27 31.66c1.61 2.78 0.65 6.35-2.13 7.95l-46.4 26.79c-1.33 0.77-2.92 0.97-4.42 0.59
				c-1.49-0.4-2.76-1.37-3.53-2.71L360.59 594c-9.69 3.57-19.66 6.31-29.77 8.19v36.51C330.82 641.91 328.21 644.51 325 644.51z" fill="#fec934" data-uid="o-f8be57b65d1a488a88a748a27427b44a"></path></g></g><g data-uid="o-6e7680343d254290b57fc46728087ee7"><g data-uid="o-87a1e1dac5a444529dfe074a45e8834f"><g data-uid="o-51c302c68adf4e11b9b44ff4d1f85151"><path class="st1" d="M343.82 455.55c0 10.1 8.22 18.32 18.32 18.32c10.1 0 18.32-8.22 18.32-18.32v-88.61
					c0-0.4 0.01-0.91 0.03-1.48c0.09-3.52 0.28-10.85-3.23-14.45c-1.63-1.68-4.09-2.49-7.51-2.49c-5.58 0-9.85 1.55-13.98 3.05
					c-6.7 2.43-15.04 5.47-23.83-3.58c-8.17-8.42-18.36-7.22-24.37-2.55c-10.02 7.79-18.6 8.87-35.33 4.43
					c-9.71-2.58-14.12 1.23-20.78 7c-1.42 1.23-2.86 2.47-4.38 3.67c-8.19 6.5-14.11 3.59-18.87 1.26
					c-2.92-1.43-5.93-2.91-10.7-3.43c-4.68-0.5-9.25 0.98-12.84 4.2c-3.49 3.13-5.66 7.6-5.66 11.66v74.06
					c0 10.1 8.22 18.32 18.32 18.32c10.1 0 18.32-8.22 18.32-18.32v-46.29c0-3.21 2.61-5.82 5.82-5.82c3.21 0 5.82 2.61 5.82 5.82
					v46.29v4.59v2.68c0 10.1 8.22 18.32 18.32 18.32c10.1 0 18.32-8.22 18.32-18.32c0-0.12 0.03-0.22 0.03-0.34v-53.22
					c0-3.21 2.61-5.82 5.82-5.82c3.21 0 5.82 2.61 5.82 5.82v54.23c0.36 9.79 8.41 17.64 18.28 17.64c9.72 0 17.67-7.62 18.26-17.19
					v-54.68c0-3.21 2.61-5.82 5.82-5.82c3.21 0 5.82 2.61 5.82 5.82v53C343.78 455.18 343.82 455.36 343.82 455.55z" fill="#fec934" data-uid="o-1e3ab4cd3d5643408ea3b50d1bd03e7f"></path></g><g data-uid="o-f502467f57e34664966bd8749d68e721"><path class="st1" d="M391.77 459.7c-2.03 14.56-14.53 25.81-29.64 25.81c-9.89 0-18.68-4.82-24.14-12.23
					c-5.46 7.41-14.24 12.23-24.14 12.23c-6.36 0-12.26-2.01-17.11-5.41v4.24c0 11.91 9.66 21.57 21.57 21.57h62.08
					c11.97 0 21.68-9.71 21.68-21.68V459.7H391.77z" fill="#fec934" data-uid="o-1e066ae15ba6444798cc60d38c572e14"></path></g></g><g data-uid="o-1af9c655b95b45f1b279dde74e0847d9"><g data-uid="o-1bd6085c972640de858ae6d72167423f"><path class="st1" fill="#fec934" data-type="circle" data-cx="297.45" data-cy="233.88" data-r="6.28" d="M297.45 233.88m-6.28 0a6.28 6.28 0 1 0 12.56 0a6.28 6.28 0 1 0 -12.56 0" data-uid="o-659adf81072e4b8e9e0cb99931083efa"></path></g><g data-uid="o-c58dd126719d4881aa61c02dc567c67a"><path class="st1" fill="#fec934" data-type="circle" data-cx="389.58" data-cy="263.54" data-r="6.28" d="M389.58 263.54m-6.28 0a6.28 6.28 0 1 0 12.56 0a6.28 6.28 0 1 0 -12.56 0" data-uid="o-4e145ed942a64996befa2a2d40a9506c"></path></g><g data-uid="o-6c0b760eeec441d4917522742e17b755"><path class="st1" fill="#fec934" data-type="circle" data-cx="207.76" data-cy="263.54" data-r="6.28" d="M207.76 263.54m-6.28 0a6.28 6.28 0 1 0 12.56 0a6.28 6.28 0 1 0 -12.56 0" data-uid="o-39b7de12af384967a53adbd9330bac31"></path></g><g data-uid="o-262d11525b0d4878b48859e84d8f79ae"><path class="st1" fill="#fec934" data-type="circle" data-cx="136.1" data-cy="337.58" data-r="6.28" d="M136.1 337.58m-6.28 0a6.28 6.28 0 1 0 12.56 0a6.28 6.28 0 1 0 -12.56 0" data-uid="o-ae623d7284524a5ba435ffbd99e6118d"></path></g><g data-uid="o-b0ec7dacc51b4e1b84455d53490ba7a5"><path class="st1" fill="#fec934" data-type="circle" data-cx="455.01" data-cy="337.58" data-r="6.28" d="M455.01 337.58m-6.28 0a6.28 6.28 0 1 0 12.56 0a6.28 6.28 0 1 0 -12.56 0" data-uid="o-8a385c7a4ce94c458668affec0ab429e"></path></g></g><g data-uid="o-946464cfb02048b5a3c1fb7aa3460633"><g data-uid="o-7470d527956041e5acaf9d746fb17800"><path class="st1" fill="#fec934" data-type="circle" data-cx="297.45" data-cy="608.12" data-r="6.28" d="M297.45 608.12m-6.28 0a6.28 6.28 0 1 0 12.56 0a6.28 6.28 0 1 0 -12.56 0" data-uid="o-430c69c4809b45eca1b1c0114f6828a3"></path></g><g data-uid="o-49c9df3b818c4ded8f4b2915a1b9e827"><path class="st1" fill="#fec934" data-type="circle" data-cx="389.58" data-cy="578.46" data-r="6.28" d="M389.58 578.46m-6.28 0a6.28 6.28 0 1 0 12.56 0a6.28 6.28 0 1 0 -12.56 0" data-uid="o-89272c12c2654b41a76342fa44c38e26"></path></g><g data-uid="o-e41102bfafc349a8a32809435d17a176"><path class="st1" fill="#fec934" data-type="circle" data-cx="207.76" data-cy="578.46" data-r="6.28" d="M207.76 578.46m-6.28 0a6.28 6.28 0 1 0 12.56 0a6.28 6.28 0 1 0 -12.56 0" data-uid="o-6fc5a6a90b64401a8523931175b1165f"></path></g><g data-uid="o-1c0b4f1a5d0147298b63ce2cf9bc34ed"><path class="st1" fill="#fec934" data-type="circle" data-cx="136.1" data-cy="504.42" data-r="6.28" d="M136.1 504.42m-6.28 0a6.28 6.28 0 1 0 12.56 0a6.28 6.28 0 1 0 -12.56 0" data-uid="o-9305f8dba3d34a1fb33d09de74b9d6b4"></path></g><g data-uid="o-e9a1d9e96347466bb2c2e15e315b56c2"><path class="st1" fill="#fec934" data-type="circle" data-cx="455.01" data-cy="504.42" data-r="6.28" d="M455.01 504.42m-6.28 0a6.28 6.28 0 1 0 12.56 0a6.28 6.28 0 1 0 -12.56 0" data-uid="o-b44341e3623d42b39087330b3137eb63"></path></g></g></g></g></svg></g><path text="Shell Collections" fill="#fec934" space="preserve" text-anchor="middle" offset="0.5" font-scale="contain" font-size="58" font-family="Teko" transform="matrix(0.8739501313861482, 0, 0, 0.8739501313861482, 256.39852904779775, 425.76122470348884)" font-style="normal" font-weight="normal" letter-spacing="4" data-fl-textpath="" data-uid="o-0c38361f60ba452e801fc24c479b7ce8" d="M-159.513-5.916L-159.513-5.916L-159.513-14.79Q-159.513-15.834 -159.832-16.153Q-160.151-16.472 -161.195-16.472L-161.195-16.472L-165.487-16.472Q-170.765-16.472 -170.765-21.634L-170.765-21.634L-170.765-31.204Q-170.765-36.308 -165.371-36.308L-165.371-36.308L-159.687-36.308Q-154.293-36.308 -154.293-31.204L-154.293-31.204L-154.293-25.868L-159.571-25.868L-159.571-30.392Q-159.571-31.436 -159.919-31.755Q-160.267-32.074 -161.311-32.074L-161.311-32.074L-163.747-32.074Q-164.791-32.074 -165.139-31.755Q-165.487-31.436 -165.487-30.392L-165.487-30.392L-165.487-22.33Q-165.487-21.286 -165.139-20.967Q-164.791-20.648 -163.747-20.648L-163.747-20.648L-159.513-20.648Q-154.177-20.648 -154.177-15.544L-154.177-15.544L-154.177-5.104Q-154.177 0 -159.629 0L-159.629 0L-165.255 0Q-170.649 0 -170.649-5.104L-170.649-5.104L-170.649-10.44L-165.371-10.44L-165.371-5.916Q-165.371-4.872 -165.023-4.553Q-164.675-4.234 -163.631-4.234L-163.631-4.234L-161.195-4.234Q-160.151-4.234 -159.832-4.553Q-159.513-4.872 -159.513-5.916ZM-136.663-28.304L-136.663-28.304L-134.633-28.304Q-129.355-28.304 -129.355-23.142L-129.355-23.142L-129.355 0L-134.575 0L-134.575-22.388Q-134.575-23.432 -134.923-23.751Q-135.271-24.07 -136.315-24.07L-136.315-24.07L-138.345-24.07Q-139.389-24.07 -139.824-23.606Q-140.259-23.142 -140.259-22.04L-140.259-22.04L-140.259 0L-145.479 0L-145.479-38.802L-140.259-38.802L-140.259-26.042Q-139.505-28.304 -136.663-28.304ZM-115.031-28.304L-115.031-28.304L-109.347-28.304Q-103.895-28.304 -103.895-23.142L-103.895-23.142L-103.895-12.528L-115.321-12.528L-115.321-5.8Q-115.321-4.814 -114.973-4.466Q-114.625-4.118 -113.581-4.118L-113.581-4.118L-110.913-4.118Q-109.869-4.118 -109.521-4.466Q-109.173-4.814 -109.173-5.858L-109.173-5.858L-109.173-8.178L-104.069-8.178L-104.069-5.104Q-104.069 0 -109.463 0L-109.463 0L-115.031 0Q-120.425 0 -120.425-5.104L-120.425-5.104L-120.425-23.142Q-120.425-28.304 -115.031-28.304ZM-115.321-22.504L-115.321-16.356L-109.057-16.356L-109.057-22.504Q-109.057-23.49 -109.376-23.838Q-109.695-24.186 -110.739-24.186L-110.739-24.186L-113.581-24.186Q-114.625-24.186 -114.973-23.838Q-115.321-23.49 -115.321-22.504L-115.321-22.504ZM-90.209-38.802L-90.209 0L-95.429 0L-95.429-38.802L-90.209-38.802ZM-75.885-38.802L-75.885 0L-81.105 0L-81.105-38.802L-75.885-38.802ZM-37.203-31.204L-37.203-24.94L-42.539-24.94L-42.539-30.508Q-42.539-31.552 -42.858-31.871Q-43.177-32.19 -44.221-32.19L-44.221-32.19L-47.179-32.19Q-48.223-32.19 -48.571-31.871Q-48.919-31.552 -48.919-30.508L-48.919-30.508L-48.919-5.742Q-48.919-4.698 -48.571-4.379Q-48.223-4.06 -47.179-4.06L-47.179-4.06L-44.221-4.06Q-43.177-4.06 -42.858-4.379Q-42.539-4.698 -42.539-5.742L-42.539-5.742L-42.539-11.252L-37.203-11.252L-37.203-5.104Q-37.203 0.058 -42.655 0.058L-42.655 0.058L-48.803 0.058Q-54.197 0.058 -54.197-5.104L-54.197-5.104L-54.197-31.204Q-54.197-36.308 -48.803-36.308L-48.803-36.308L-42.655-36.308Q-37.203-36.308 -37.203-31.204L-37.203-31.204ZM-23.459-28.304L-23.459-28.304L-17.253-28.304Q-11.859-28.304 -11.859-23.142L-11.859-23.142L-11.859-5.104Q-11.859 0 -17.253 0L-17.253 0L-23.459 0Q-28.795 0 -28.795-5.104L-28.795-5.104L-28.795-23.142Q-28.795-28.304 -23.459-28.304ZM-17.021-5.858L-17.021-5.858L-17.021-22.446Q-17.021-23.49 -17.369-23.838Q-17.717-24.186 -18.761-24.186L-18.761-24.186L-21.951-24.186Q-22.995-24.186 -23.314-23.838Q-23.633-23.49 -23.633-22.446L-23.633-22.446L-23.633-5.858Q-23.633-4.814 -23.314-4.466Q-22.995-4.118 -21.951-4.118L-21.951-4.118L-18.761-4.118Q-17.717-4.118 -17.369-4.466Q-17.021-4.814 -17.021-5.858ZM 2.175-38.802L 2.175 0L-3.045 0L-3.045-38.802L 2.175-38.802ZM 16.499-38.802L 16.499 0L 11.279 0L 11.279-38.802L 16.499-38.802ZM 30.881-28.304L 30.881-28.304L 36.565-28.304Q 42.017-28.304  42.017-23.142L 42.017-23.142L 42.017-12.528L 30.591-12.528L 30.591-5.8Q 30.591-4.814  30.939-4.466Q 31.287-4.118  32.331-4.118L 32.331-4.118L 34.999-4.118Q 36.043-4.118  36.391-4.466Q 36.739-4.814  36.739-5.858L 36.739-5.858L 36.739-8.178L 41.843-8.178L 41.843-5.104Q 41.843 0  36.449 0L 36.449 0L 30.881 0Q 25.487 0  25.487-5.104L 25.487-5.104L 25.487-23.142Q 25.487-28.304  30.881-28.304ZM 30.591-22.504L 30.591-16.356L 36.855-16.356L 36.855-22.504Q 36.855-23.49  36.536-23.838Q 36.217-24.186  35.173-24.186L 35.173-24.186L 32.331-24.186Q 31.287-24.186  30.939-23.838Q 30.591-23.49  30.591-22.504L 30.591-22.504ZM 66.491-23.142L 66.491-19.372L 61.329-19.372L 61.329-22.388Q 61.329-23.432  60.981-23.751Q 60.633-24.07  59.589-24.07L 59.589-24.07L 57.095-24.07Q 56.051-24.07  55.703-23.751Q 55.355-23.432  55.355-22.388L 55.355-22.388L 55.355-5.916Q 55.355-4.872  55.703-4.553Q 56.051-4.234  57.095-4.234L 57.095-4.234L 59.589-4.234Q 60.633-4.234  60.981-4.553Q 61.329-4.872  61.329-5.916L 61.329-5.916L 61.329-8.932L 66.491-8.932L 66.491-5.104Q 66.491 0  61.039 0L 61.039 0L 55.529 0Q 50.135 0  50.135-5.104L 50.135-5.104L 50.135-23.142Q 50.135-28.304  55.529-28.304L 55.529-28.304L 61.039-28.304Q 66.491-28.304  66.491-23.142L 66.491-23.142ZM 84.411-28.304L 84.411-24.07L 80.525-24.07L 80.525-6.148Q 80.525-5.104  80.844-4.785Q 81.163-4.466  82.207-4.466L 82.207-4.466L 84.411-4.466L 84.411 0L 80.699 0Q 75.247 0  75.247-5.104L 75.247-5.104L 75.247-24.07L 72.579-24.07L 72.579-28.304L 75.247-28.304L 75.247-33.118L 80.525-33.118L 80.525-28.304L 84.411-28.304ZM 96.879-33.698L 91.427-33.698L 91.427-38.86L 96.879-38.86L 96.879-33.698ZM 96.763-28.304L 96.763 0L 91.543 0L 91.543-28.304L 96.763-28.304ZM 110.913-28.304L 110.913-28.304L 117.119-28.304Q 122.513-28.304  122.513-23.142L 122.513-23.142L 122.513-5.104Q 122.513 0  117.119 0L 117.119 0L 110.913 0Q 105.577 0  105.577-5.104L 105.577-5.104L 105.577-23.142Q 105.577-28.304  110.913-28.304ZM 117.351-5.858L 117.351-5.858L 117.351-22.446Q 117.351-23.49  117.003-23.838Q 116.655-24.186  115.611-24.186L 115.611-24.186L 112.421-24.186Q 111.377-24.186  111.058-23.838Q 110.739-23.49  110.739-22.446L 110.739-22.446L 110.739-5.858Q 110.739-4.814  111.058-4.466Q 111.377-4.118  112.421-4.118L 112.421-4.118L 115.611-4.118Q 116.655-4.118  117.003-4.466Q 117.351-4.814  117.351-5.858ZM 140.143-28.304L 140.143-28.304L 142.173-28.304Q 147.451-28.304  147.451-23.142L 147.451-23.142L 147.451 0L 142.231 0L 142.231-22.388Q 142.231-23.432  141.883-23.751Q 141.535-24.07  140.491-24.07L 140.491-24.07L 138.461-24.07Q 137.417-24.07  136.982-23.606Q 136.547-23.142  136.547-22.04L 136.547-22.04L 136.547 0L 131.327 0L 131.327-28.304L 136.547-28.304L 136.547-26.042Q 137.301-28.304  140.143-28.304ZM 165.951-5.684L 165.951-5.684L 165.951-10.382Q 165.951-11.426  165.603-11.745Q 165.255-12.064  164.211-12.064L 164.211-12.064L 161.253-12.064Q 155.859-12.064  155.859-17.168L 155.859-17.168L 155.859-23.142Q 155.859-28.304  161.253-28.304L 161.253-28.304L 165.487-28.304Q 170.939-28.304  170.939-23.142L 170.939-23.142L 170.939-20.416L 165.835-20.416L 165.835-22.62Q 165.835-23.664  165.487-23.983Q 165.139-24.302  164.095-24.302L 164.095-24.302L 162.703-24.302Q 161.659-24.302  161.311-23.983Q 160.963-23.664  160.963-22.62L 160.963-22.62L 160.963-17.748Q 160.963-16.704  161.311-16.385Q 161.659-16.066  162.703-16.066L 162.703-16.066L 165.719-16.066Q 171.055-16.066  171.055-10.904L 171.055-10.904L 171.055-5.104Q 171.055 0  165.661 0L 165.661 0L 161.369 0Q 155.975 0  155.975-5.104L 155.975-5.104L 155.975-7.888L 161.079-7.888L 161.079-5.684Q 161.079-4.64  161.427-4.321Q 161.775-4.002  162.819-4.002L 162.819-4.002L 164.211-4.002Q 165.255-4.002  165.603-4.321Q 165.951-4.64  165.951-5.684Z" style=""></path></svg>